P3
2 2
255
60
60
60
120
120
120
180
180
180
240
240
240