P3
# Created by us
3 3
10
0
0
0
0
5
10
10
10
10
5
5
5
5
10
10
10
10
5
10
5
0
10
10
0
0
10
0