P3
# Created by us
3 3
10
1
1
1
1
6
10
10
10
10
6
6
6
6
10
10
10
10
6
10
6
1
10
10
1
1
10
1