P3
# Created by us
3 3
10
0
0
0
4
4
4
9
9
9
4
4
4
8
8
8
9
9
9
5
5
5
9
9
9
7
7
7