P3
# Created by us
3 3
10
0
0
0
5
5
5
10
10
10
5
5
5
8
8
8
8
8
8
5
5
5
6
6
6
3
3
3