P3
# Created by us
3 3
10
0
0
4
5
10
10
10
10
10
9
9
8
10
10
10
10
10
10
10
7
1
10
10
3
3
10
1