P3
# Created by us
3 3
10
0
0
0
6
5
4
10
10
9
7
6
5
10
10
8
10
10
9
8
7
5
10
10
8
8
7
5