P3
2 2
255
0
0
0
70
70
70
140
140
140
210
210
210