P3
2 3
255
0
1
5
40
41
45
80
81
85
120
121
125
160
161
165
200
201
205