P3
# Created by us
3 3
10
1
2
3
3
5
6
4
5
5
4
4
3
6
8
6
5
7
4
5
4
1
5
7
2
3
6
1